<svg width="96" height="96" xmlns="http://www.w3.org/2000/svg" xmlns:xlink="http://www.w3.org/1999/xlink" xml:space="preserve" overflow="hidden"><g transform="translate(-664 -434)"><path d="M709.5 454C694 454 681.5 466.5 681.5 482 681.5 486.9 682.8 491.5 685 495.5 687.1 493.3 689.4 491.1 691.9 488.7 698.2 482.8 705.6 476.8 711.8 472.4 712.2 472.1 712.6 471.9 713.1 471.9 714.2 471.9 715.1 472.8 715.1 473.9 715.1 474.6 714.8 475.1 714.3 475.5L714.3 475.5C705.4 481.9 693.6 491.8 685.6 500.8 685.6 500.8 684.5 502 684 502.6L684 502.6C679.5 507.9 676.5 512.7 676.5 516.1L682.5 516.1C682.5 513.9 686 509.1 691.3 503.4 696.2 507.6 702.5 510.1 709.5 510.1 714.5 510.1 719.3 508.8 723.4 506.4L723.4 506.4C744.8 494.5 747.5 472.6 747.5 448 747.5 448 724.2 454.4 709.5 454Z" fill="#3B7D23"/></g></svg>